<svg width="20" height="20" viewBox="0 0 20 20" fill="none" xmlns="http://www.w3.org/2000/svg">
<path d="M12.3772 14.8674C12.3772 14.868 12.3779 14.8683 12.3784 14.8679L15.6097 11.636C15.7615 11.4788 15.8455 11.2683 15.8436 11.0498C15.8417 10.8312 15.7541 10.6222 15.5995 10.4677C15.445 10.3131 15.236 10.2255 15.0175 10.2236C14.799 10.2217 14.5885 10.3057 14.4314 10.4575L11.1989 13.6905C11.1094 13.7782 11.0107 13.8558 10.9044 13.922C10.891 13.9303 10.8805 13.9213 10.8805 13.9056L10.8539 0.833467C10.8539 0.612418 10.7661 0.400422 10.6098 0.244117C10.4535 0.0878116 10.2415 0 10.0205 0C9.79952 0 9.58756 0.0878116 9.43128 0.244117C9.275 0.400422 9.1872 0.612418 9.1872 0.833467L9.21387 13.9006C9.21387 13.9296 9.19401 13.948 9.16888 13.9335C9.05036 13.8652 8.94063 13.7825 8.8422 13.6872L5.6097 10.4542C5.53283 10.3746 5.44088 10.3111 5.3392 10.2674C5.23754 10.2237 5.12819 10.2007 5.01754 10.1998C4.90689 10.1988 4.79715 10.2199 4.69474 10.2618C4.59233 10.3037 4.49928 10.3656 4.42104 10.4438C4.3428 10.5221 4.28092 10.6152 4.23902 10.7176C4.19712 10.82 4.17603 10.9298 4.17699 11.0404C4.17795 11.1511 4.20094 11.2605 4.24462 11.3622C4.28829 11.4638 4.35178 11.5558 4.43137 11.6327L7.66387 14.8657C8.28896 15.4907 9.13665 15.8418 10.0205 15.8418C10.9039 15.8418 11.751 15.4912 12.376 14.8669C12.3765 14.8665 12.3772 14.8668 12.3772 14.8674Z" fill="#2F0F5D"/>
<path d="M18.3333 14.1657V15.8327C18.3333 16.4958 18.0699 17.1318 17.6011 17.6007C17.1323 18.0696 16.4964 18.3331 15.8333 18.3331H4.16667C3.50363 18.3331 2.86774 18.0696 2.3989 17.6007C1.93006 17.1318 1.66667 16.4958 1.66667 15.8327L1.66667 14.1657C1.66667 13.9447 1.57887 13.7327 1.42259 13.5764C1.26631 13.4201 1.05435 13.3323 0.833333 13.3323C0.61232 13.3323 0.400358 13.4201 0.244078 13.5764C0.0877974 13.7327 0 13.9447 0 14.1657L0 15.8327C0.00132321 16.9375 0.440735 17.9967 1.22185 18.778C2.00296 19.5592 3.062 19.9987 4.16667 20H15.8333C16.938 19.9987 17.997 19.5592 18.7782 18.778C19.5593 17.9967 19.9987 16.9375 20 15.8327V14.1657C20 13.9447 19.9122 13.7327 19.7559 13.5764C19.5996 13.4201 19.3877 13.3323 19.1667 13.3323C18.9457 13.3323 18.7337 13.4201 18.5774 13.5764C18.4211 13.7327 18.3333 13.9447 18.3333 14.1657Z" fill="#2F0F5D"/>
</svg>
