<svg width="28" height="28" viewBox="0 0 28 28" fill="none" xmlns="http://www.w3.org/2000/svg">
<path d="M17.328 20.8167L21.8535 16.2904C22.0661 16.0704 22.1836 15.7756 22.181 15.4697C22.1783 15.1637 22.0556 14.8711 21.8393 14.6547C21.623 14.4384 21.3304 14.3157 21.0245 14.313C20.7186 14.3103 20.4239 14.428 20.2039 14.6405L15.6784 19.1667C15.5412 19.3012 15.3885 19.4187 15.2234 19.5168C15.2234 19.4993 15.2327 19.4853 15.2327 19.4678L15.1954 1.16685C15.1954 0.857385 15.0725 0.560591 14.8537 0.341764C14.6349 0.122936 14.3381 0 14.0287 0C13.7193 0 13.4225 0.122936 13.2037 0.341764C12.985 0.560591 12.862 0.857385 12.862 1.16685L12.8994 19.4608C12.8994 19.4935 12.9157 19.5203 12.918 19.5518C12.7207 19.4483 12.5392 19.3171 12.379 19.1621L7.85353 14.6358C7.74591 14.5244 7.61718 14.4355 7.47484 14.3744C7.3325 14.3132 7.17941 14.281 7.0245 14.2797C6.86959 14.2783 6.71597 14.3078 6.57259 14.3665C6.42921 14.4252 6.29895 14.5118 6.18941 14.6214C6.07986 14.7309 5.99323 14.8612 5.93457 15.0046C5.87591 15.148 5.84639 15.3017 5.84774 15.4566C5.84909 15.6115 5.88127 15.7647 5.94242 15.907C6.00356 16.0494 6.09244 16.1781 6.20387 16.2858L10.7294 20.812C11.6045 21.687 12.7913 22.1786 14.0287 22.1786C15.2661 22.1786 16.4529 21.687 17.328 20.812V20.8167Z" fill="#2F0F5D"/>
<path d="M25.6667 19.832V22.1657C25.6667 23.0941 25.2979 23.9845 24.6415 24.641C23.9852 25.2975 23.0949 25.6663 22.1667 25.6663H5.83333C4.90508 25.6663 4.01484 25.2975 3.35846 24.641C2.70208 23.9845 2.33333 23.0941 2.33333 22.1657V19.832C2.33333 19.5226 2.21042 19.2258 1.99162 19.0069C1.77283 18.7881 1.47609 18.6652 1.16667 18.6652C0.857247 18.6652 0.560501 18.7881 0.341709 19.0069C0.122916 19.2258 0 19.5226 0 19.832L0 22.1657C0.0018525 23.7125 0.617029 25.1954 1.71059 26.2891C2.80415 27.3829 4.28681 27.9981 5.83333 28H22.1667C23.7132 27.9981 25.1959 27.3829 26.2894 26.2891C27.383 25.1954 27.9981 23.7125 28 22.1657V19.832C28 19.5226 27.8771 19.2258 27.6583 19.0069C27.4395 18.7881 27.1428 18.6652 26.8333 18.6652C26.5239 18.6652 26.2272 18.7881 26.0084 19.0069C25.7896 19.2258 25.6667 19.5226 25.6667 19.832Z" fill="#2F0F5D"/>
</svg>
