<svg width="26" height="25" viewBox="0 0 26 25" fill="none" xmlns="http://www.w3.org/2000/svg">
<path d="M25.6114 9.694C25.4 9.02123 24.9777 8.43435 24.407 8.02013C23.8363 7.60591 23.1474 7.38635 22.4423 7.39393H17.9279L16.5568 3.1203C16.3411 2.4476 15.9174 1.86076 15.3468 1.4444C14.7761 1.02804 14.0879 0.803688 13.3815 0.803688C12.6751 0.803688 11.9869 1.02804 11.4163 1.4444C10.8456 1.86076 10.4219 2.4476 10.2063 3.1203L8.8351 7.39393H4.32072C3.61783 7.39493 2.93323 7.61803 2.36471 8.03136C1.79619 8.44469 1.37283 9.02711 1.1551 9.69543C0.937365 10.3638 0.936401 11.0838 1.15234 11.7527C1.36828 12.4216 1.79008 13.0051 2.3575 13.42L6.03182 16.1065L4.63483 20.4328C4.40908 21.1038 4.40622 21.8298 4.62668 22.5026C4.84715 23.1753 5.27913 23.7588 5.85823 24.166C6.42741 24.5864 7.11717 24.8115 7.82471 24.808C8.53226 24.8045 9.21973 24.5724 9.78468 24.1464L13.3815 21.4992L16.9794 24.1433C17.5475 24.5612 18.2336 24.7882 18.9388 24.7917C19.6441 24.7951 20.3323 24.5748 20.9045 24.1624C21.4767 23.7501 21.9034 23.1669 22.1233 22.4968C22.3432 21.8266 22.3449 21.104 22.1282 20.4328L20.7312 16.1065L24.4097 13.42C24.9835 13.0103 25.4103 12.4268 25.6267 11.7557C25.8432 11.0847 25.8378 10.3618 25.6114 9.694ZM23.1904 11.7513L18.9085 14.881C18.7326 15.0093 18.6018 15.1899 18.5346 15.397C18.4674 15.6041 18.4674 15.8271 18.5344 16.0342L20.1619 21.0662C20.2442 21.3215 20.2435 21.5962 20.1599 21.851C20.0762 22.1058 19.9139 22.3275 19.6963 22.4843C19.4787 22.641 19.217 22.7247 18.9488 22.7233C18.6806 22.722 18.4198 22.6356 18.2038 22.4766L13.9932 19.3768C13.8159 19.2466 13.6016 19.1763 13.3815 19.1763C13.1615 19.1763 12.9472 19.2466 12.7698 19.3768L8.55921 22.4766C8.34334 22.6377 8.08177 22.7259 7.81243 22.7284C7.54308 22.7308 7.27996 22.6474 7.0612 22.4902C6.84244 22.3331 6.67943 22.1103 6.59578 21.8543C6.51213 21.5982 6.51221 21.3222 6.59599 21.0662L8.22856 16.0342C8.29564 15.8271 8.29559 15.6041 8.22842 15.397C8.16125 15.1899 8.03039 15.0093 7.85452 14.881L3.57263 11.7513C3.35699 11.5934 3.19676 11.3714 3.11483 11.117C3.03289 10.8626 3.03345 10.5888 3.11642 10.3347C3.19939 10.0807 3.36052 9.85933 3.5768 9.70232C3.79309 9.54531 4.05345 9.46067 4.32072 9.46048H9.59042C9.80918 9.46047 10.0223 9.39104 10.1991 9.26217C10.3758 9.1333 10.5072 8.95165 10.5741 8.74339L12.1757 3.75163C12.2579 3.49619 12.419 3.27343 12.6359 3.1154C12.8528 2.95736 13.1142 2.87222 13.3825 2.87222C13.6509 2.87222 13.9123 2.95736 14.1292 3.1154C14.3461 3.27343 14.5072 3.49619 14.5894 3.75163L16.191 8.74339C16.2579 8.95165 16.3892 9.1333 16.566 9.26217C16.7428 9.39104 16.9559 9.46047 17.1747 9.46048H22.4444C22.7116 9.46067 22.972 9.54531 23.1883 9.70232C23.4046 9.85933 23.5657 10.0807 23.6487 10.3347C23.7316 10.5888 23.7322 10.8626 23.6503 11.117C23.5683 11.3714 23.4081 11.5934 23.1925 11.7513H23.1904Z" fill="#E7E7E7"/>
</svg>
