<svg width="24" height="24" viewBox="0 0 24 24" fill="none" xmlns="http://www.w3.org/2000/svg">
<g clip-path="url(#clip0_27_744)">
<path d="M11.2587 5.04277C9.55411 5.21883 7.87355 6.08712 6.75319 7.37554C5.78487 8.4799 5.20068 9.81634 5.04063 11.2888C4.90058 12.5612 5.13666 13.8857 5.71285 15.0621C6.42108 16.4985 7.50543 17.5829 8.9379 18.2871C9.75017 18.6832 10.5064 18.8873 11.4507 18.9713C12.6751 19.0754 13.9275 18.8393 15.0599 18.2871C16.4924 17.5829 17.5807 16.4985 18.281 15.0621C18.6811 14.2498 18.8852 13.4935 18.9692 12.5532C19.1292 10.6966 18.501 8.81201 17.2446 7.37554C15.7761 5.69499 13.5074 4.80669 11.2587 5.04277ZM12.5311 7.17147C12.7952 7.30351 13.5514 7.94773 14.2196 8.61995C15.9122 10.3125 16.6804 11.777 16.5204 13.0054C16.4684 13.4135 16.4164 13.5736 16.2283 13.9377C15.8162 14.738 14.9199 15.2901 14.0396 15.2901C13.5594 15.2941 13.0913 15.1261 12.6511 14.798L12.4391 14.6419L12.4631 14.83C12.5271 15.3662 12.6951 15.7623 12.9232 15.9263C13.1513 16.0864 13.3674 16.1224 14.1476 16.1224H14.8799V16.5425V16.9627H11.9989H9.11796V16.5425V16.1224H9.8502C10.6305 16.1224 10.8465 16.0864 11.0746 15.9263C11.3027 15.7623 11.4707 15.3662 11.5348 14.83L11.5588 14.6419L11.3467 14.798C10.9065 15.1261 10.4384 15.2941 9.95824 15.2901C9.07795 15.2901 8.18566 14.738 7.76952 13.9377C7.11331 12.6773 7.48543 11.2608 8.9259 9.54025C9.50609 8.84802 10.5664 7.81968 11.1906 7.34753C11.6228 7.01942 12.0949 6.9594 12.5311 7.17147Z" fill="#2F0F5D"/>
<path d="M10.9786 0.0411477C10.4184 0.0931649 9.61018 0.229209 9.11002 0.357252C8.62186 0.481292 7.92963 0.697363 7.8456 0.753381C7.80159 0.777389 7.95764 1.18952 8.54583 2.61399C9.21405 4.23852 9.30608 4.43859 9.37811 4.42659C9.42212 4.41458 9.61818 4.36256 9.81425 4.30254C10.4104 4.12649 11.0066 4.03446 11.7189 4.01045C12.6752 3.97844 13.5395 4.09048 14.3677 4.35456C14.5598 4.41858 14.7279 4.45459 14.7399 4.43859C14.7799 4.37457 16.2404 0.829406 16.2404 0.797396C16.2404 0.753381 15.4801 0.509301 14.8959 0.361253C13.6595 0.0491505 12.183 -0.070889 10.9786 0.0411477Z" fill="#2F0F5D"/>
<path d="M6.55716 1.30956C4.70055 2.25387 3.14004 3.64633 2.01167 5.35889C1.55151 6.05912 1.01934 7.05145 1.07936 7.09146C1.09536 7.10346 4.5685 8.53994 4.68454 8.57995C4.73656 8.59995 4.78457 8.53994 4.90862 8.29185C5.59684 6.93541 6.86526 5.65099 8.2057 4.95876C8.38976 4.86273 8.54181 4.7827 8.54981 4.7787C8.56581 4.7627 7.07733 1.14951 7.04131 1.1095C7.02531 1.09349 6.80924 1.18152 6.55716 1.30956Z" fill="#2F0F5D"/>
<path d="M16.9405 1.24552C16.5084 2.28987 15.5081 4.71066 15.4921 4.74667C15.4801 4.77468 15.5881 4.85071 15.7481 4.93073C17.0766 5.60295 18.357 6.88337 19.0612 8.24382C19.2253 8.56392 19.2613 8.60394 19.3373 8.58393C19.4454 8.55592 22.8825 7.13546 22.9105 7.10345C22.9745 7.04343 22.4783 6.10712 21.9862 5.35887C20.9418 3.77035 19.4774 2.42191 17.7608 1.4776C17.4207 1.28954 17.0646 1.11748 17.0166 1.11748C17.0046 1.11748 16.9725 1.1775 16.9405 1.24552Z" fill="#2F0F5D"/>
<path d="M0.719236 7.90772C0.587193 8.16381 0.267088 9.40021 0.159052 10.0844C-0.0530174 11.4089 -0.0530174 12.5893 0.159052 13.9217C0.311102 14.882 0.719236 16.2745 0.839275 16.2505C0.903296 16.2345 4.44046 14.774 4.46046 14.75C4.46847 14.746 4.42045 14.5739 4.35643 14.3778C3.90428 12.9614 3.88027 11.2408 4.30041 9.81635C4.35643 9.62029 4.40845 9.43623 4.41245 9.40822C4.41645 9.3722 3.77624 9.08811 2.59585 8.59595C1.59552 8.17981 0.771253 7.8397 0.767252 7.8397C0.76325 7.8397 0.743244 7.87171 0.719236 7.90772Z" fill="#2F0F5D"/>
<path d="M21.35 8.63195C19.9455 9.22014 19.5654 9.3922 19.5854 9.44021C19.7975 9.99239 19.9615 10.9167 19.9895 11.721C20.0216 12.6773 19.9095 13.5416 19.6454 14.3698C19.5814 14.5619 19.5454 14.7299 19.5614 14.742C19.6254 14.782 23.1706 16.2424 23.2026 16.2424C23.2466 16.2424 23.4907 15.4822 23.6387 14.898C24.1829 12.7333 24.1069 10.4966 23.4187 8.31985C23.3106 7.97973 23.2626 7.8797 23.2106 7.8837C23.1746 7.8837 22.3383 8.22381 21.35 8.63195Z" fill="#2F0F5D"/>
<path d="M19.0692 15.7503C18.401 17.0667 17.1166 18.3631 15.7922 19.0434C15.6081 19.1394 15.4561 19.2194 15.4481 19.2234C15.4361 19.2314 16.3483 21.4642 16.8965 22.7726L16.9606 22.9206L17.1766 22.8246C17.8008 22.5485 18.8812 21.8683 19.5614 21.3201C20.1016 20.888 20.8898 20.0997 21.318 19.5635C22.0142 18.6952 22.9665 17.1027 22.8545 16.9987C22.8305 16.9787 19.9655 15.7823 19.2533 15.4942C19.2253 15.4822 19.1493 15.5902 19.0692 15.7503Z" fill="#2F0F5D"/>
<path d="M2.93593 16.2625C1.96762 16.6706 1.15935 17.0067 1.14335 17.0107C1.06332 17.0427 1.51147 17.879 2.01163 18.6432C2.88392 19.9677 4.03229 21.116 5.35673 21.9883C6.15699 22.5125 7.01327 22.9647 7.08129 22.8966C7.1133 22.8646 8.59779 19.3035 8.59779 19.2634C8.59779 19.2514 8.45774 19.1754 8.28969 19.0874C6.94525 18.4112 5.64082 17.1267 4.9686 15.8223C4.87657 15.6423 4.79254 15.5222 4.75653 15.5262C4.72452 15.5262 3.90425 15.8583 2.93593 16.2625Z" fill="#2F0F5D"/>
<path d="M9.32202 19.6476C9.30201 19.6996 8.9619 20.5239 8.56177 21.4802C8.16564 22.4365 7.84953 23.2327 7.86154 23.2487C7.88955 23.2928 8.53376 23.4968 9.10595 23.6409C11.2506 24.1851 13.5314 24.109 15.6681 23.4248C15.9082 23.3488 16.1242 23.2688 16.1523 23.2487C16.1963 23.2247 16.0402 22.8126 15.452 21.3881C14.7838 19.7636 14.6918 19.5635 14.6198 19.5755C14.5757 19.5875 14.3797 19.6396 14.1796 19.6996C13.4274 19.9237 12.9792 19.9797 11.9989 19.9797C11.2386 19.9797 11.0266 19.9677 10.6384 19.8916C10.2343 19.8156 9.63812 19.6636 9.43005 19.5835C9.37803 19.5635 9.35003 19.5835 9.32202 19.6476Z" fill="#2F0F5D"/>
</g>
<defs>
<clipPath id="clip0_27_744">
<rect width="24" height="24" fill="white"/>
</clipPath>
</defs>
</svg>
