<svg width="20" height="24" viewBox="0 0 20 24" fill="none" xmlns="http://www.w3.org/2000/svg">
<path d="M16.581 2.14024L10.316 0.0512408C10.1109 -0.0170803 9.88913 -0.0170803 9.684 0.0512408L3.419 2.14024C2.42291 2.47112 1.55642 3.1075 0.942645 3.95895C0.328874 4.8104 -0.000961674 5.83363 2.10612e-06 6.88324V12.0002C2.10612e-06 19.5632 9.2 23.7402 9.594 23.9142C9.72182 23.971 9.86014 24.0004 10 24.0004C10.1399 24.0004 10.2782 23.971 10.406 23.9142C10.8 23.7402 20 19.5632 20 12.0002V6.88324C20.001 5.83363 19.6711 4.8104 19.0574 3.95895C18.4436 3.1075 17.5771 2.47112 16.581 2.14024ZM18 12.0002C18 17.4552 11.681 21.0332 10 21.8892C8.317 21.0362 2 17.4692 2 12.0002V6.88324C2.00006 6.25352 2.19828 5.63978 2.56657 5.12898C2.93486 4.61819 3.45455 4.23623 4.052 4.03724L10 2.05424L15.948 4.03724C16.5455 4.23623 17.0651 4.61819 17.4334 5.12898C17.8017 5.63978 17.9999 6.25352 18 6.88324V12.0002Z" fill="#2F0F5D"/>
<path d="M13.3 8.30024L9.11204 12.5002L6.86804 10.1602C6.77798 10.0618 6.66913 9.98233 6.5479 9.92659C6.42666 9.87084 6.2955 9.83992 6.16213 9.83565C6.02877 9.83138 5.89589 9.85384 5.77134 9.90172C5.64679 9.94959 5.53308 10.0219 5.43691 10.1144C5.34074 10.2069 5.26405 10.3177 5.21137 10.4403C5.15869 10.5629 5.13107 10.6948 5.13015 10.8282C5.12923 10.9617 5.15502 11.0939 5.20601 11.2173C5.257 11.3406 5.33215 11.4524 5.42704 11.5462L7.73304 13.9462C7.90501 14.132 8.11287 14.2809 8.34405 14.3841C8.57523 14.4872 8.82493 14.5424 9.07804 14.5462H9.11104C9.35909 14.5471 9.60484 14.4986 9.83401 14.4037C10.0632 14.3087 10.2712 14.1692 10.446 13.9932L14.718 9.72124C14.8113 9.62813 14.8854 9.51756 14.936 9.39583C14.9865 9.27411 15.0126 9.14361 15.0128 9.0118C15.0129 8.87999 14.9871 8.74944 14.9368 8.62761C14.8865 8.50577 14.8126 8.39504 14.7195 8.30174C14.6264 8.20844 14.5159 8.13438 14.3941 8.08381C14.2724 8.03324 14.1419 8.00714 14.0101 8.007C13.8783 8.00686 13.7477 8.03269 13.6259 8.083C13.5041 8.13331 13.3933 8.20713 13.3 8.30024Z" fill="#2F0F5D"/>
</svg>
