<svg width="20" height="19" viewBox="0 0 25 19" fill="none" xmlns="http://www.w3.org/2000/svg">
<path d="M0.264205 17V2.45455H6.00284C7.10133 2.45455 8.03883 2.65104 8.81534 3.04403C9.59659 3.43229 10.1908 3.9839 10.598 4.69886C11.0099 5.40909 11.2159 6.24479 11.2159 7.20597C11.2159 8.17187 11.0076 9.00284 10.5909 9.69886C10.1742 10.3902 9.57055 10.9205 8.77983 11.2898C7.99384 11.6591 7.04214 11.8438 5.92472 11.8438H2.08239V9.37216H5.42756C6.01468 9.37216 6.50237 9.29167 6.89062 9.13068C7.27888 8.9697 7.56771 8.72822 7.7571 8.40625C7.95123 8.08428 8.0483 7.68419 8.0483 7.20597C8.0483 6.72301 7.95123 6.31581 7.7571 5.98438C7.56771 5.65294 7.27652 5.40199 6.88352 5.23153C6.49527 5.05634 6.00521 4.96875 5.41335 4.96875H3.33949V17H0.264205ZM8.11932 10.3807L11.7344 17H8.33949L4.80256 10.3807H8.11932ZM18.1903 18.8182V0.636363H19.3551V18.8182H18.1903ZM21.2798 6.63778C21.223 6.06487 20.9792 5.61979 20.5483 5.30256C20.1174 4.98532 19.5327 4.8267 18.794 4.8267C18.2921 4.8267 17.8684 4.89773 17.5227 5.03977C17.1771 5.17708 16.9119 5.36884 16.7273 5.61506C16.5473 5.86127 16.4574 6.14062 16.4574 6.45312C16.4479 6.71354 16.5024 6.94081 16.6207 7.13494C16.7438 7.32907 16.9119 7.49716 17.125 7.6392C17.3381 7.77651 17.5843 7.89725 17.8636 8.00142C18.143 8.10085 18.4413 8.18608 18.7585 8.2571L20.0653 8.5696C20.6998 8.71165 21.2822 8.90104 21.8125 9.13778C22.3428 9.37453 22.8021 9.66572 23.1903 10.0114C23.5786 10.357 23.8793 10.7642 24.0923 11.233C24.3101 11.7017 24.4214 12.2391 24.4261 12.8452C24.4214 13.7353 24.1941 14.5071 23.7443 15.1605C23.2992 15.8092 22.6553 16.3134 21.8125 16.6733C20.9744 17.0284 19.9635 17.206 18.7798 17.206C17.6056 17.206 16.5829 17.026 15.7116 16.6662C14.8452 16.3063 14.1681 15.7737 13.6804 15.0682C13.1974 14.358 12.9441 13.4796 12.9205 12.4332H15.8963C15.9295 12.9209 16.0691 13.3281 16.3153 13.6548C16.5663 13.9768 16.9001 14.2206 17.3168 14.3864C17.7382 14.5473 18.214 14.6278 18.7443 14.6278C19.2652 14.6278 19.7173 14.5521 20.1009 14.4006C20.4891 14.2491 20.7898 14.0384 21.0028 13.7685C21.2159 13.4986 21.3224 13.1884 21.3224 12.8381C21.3224 12.5114 21.2254 12.2367 21.0312 12.0142C20.8419 11.7917 20.5625 11.6023 20.1932 11.446C19.8286 11.2898 19.3812 11.1477 18.8509 11.0199L17.267 10.6222C16.0407 10.3239 15.0724 9.85748 14.3622 9.22301C13.652 8.58854 13.2992 7.7339 13.304 6.65909C13.2992 5.77841 13.5336 5.009 14.0071 4.35085C14.4853 3.69271 15.1411 3.17898 15.9744 2.80966C16.8078 2.44034 17.7547 2.25568 18.8153 2.25568C19.8949 2.25568 20.8371 2.44034 21.642 2.80966C22.4517 3.17898 23.0814 3.69271 23.5312 4.35085C23.9811 5.009 24.2131 5.77131 24.2273 6.63778H21.2798Z" fill="#2F0F5D"/>
</svg>
