<svg width="28" height="28" viewBox="0 0 28 28" fill="none" xmlns="http://www.w3.org/2000/svg">
<path d="M26.6195 16.5197L22.0316 11.9942C21.8085 11.7816 21.5098 11.664 21.1997 11.6667C20.8896 11.6694 20.5929 11.7921 20.3736 12.0084C20.1543 12.2247 20.0299 12.5173 20.0272 12.8232C20.0246 13.1291 20.1438 13.4238 20.3592 13.6438L24.9471 18.1693C25.0834 18.3064 25.2025 18.4592 25.3019 18.6243C25.2842 18.6243 25.27 18.615 25.2522 18.615L6.70209 18.6523C6.38841 18.6523 6.08757 18.7752 5.86577 18.994C5.64396 19.2128 5.51935 19.5096 5.51935 19.819C5.51935 20.1284 5.64396 20.4252 5.86577 20.6439C6.08757 20.8627 6.38841 20.9857 6.70209 20.9857L25.2451 20.9483C25.2782 20.9483 25.3054 20.932 25.3374 20.9297C25.2325 21.127 25.0994 21.3085 24.9423 21.4687L20.3545 25.9942C20.2415 26.1018 20.1514 26.2305 20.0894 26.3728C20.0274 26.5152 19.9948 26.6683 19.9935 26.8232C19.9921 26.9781 20.022 27.1317 20.0815 27.2751C20.1409 27.4185 20.2288 27.5487 20.3398 27.6583C20.4509 27.7678 20.5829 27.8545 20.7283 27.9131C20.8736 27.9718 21.0294 28.0013 21.1864 27.9999C21.3435 27.9986 21.4987 27.9664 21.643 27.9053C21.7873 27.8441 21.9178 27.7552 22.0269 27.6438L26.6147 23.1183C27.5017 22.2432 27.9999 21.0564 27.9999 19.819C27.9999 18.5816 27.5017 17.3948 26.6147 16.5197H26.6195Z" fill="#2F0F5D"/>
<path d="M1.38041 11.4803L5.96827 16.0058C6.19133 16.2183 6.4901 16.3359 6.80021 16.3333C7.11032 16.3306 7.40697 16.2079 7.62626 15.9916C7.84555 15.7753 7.96993 15.4827 7.97263 15.1768C7.97532 14.8709 7.85611 14.5762 7.64066 14.3562L3.0528 9.83066C2.9165 9.69355 2.79737 9.54079 2.69798 9.37566C2.71572 9.37566 2.72992 9.385 2.74766 9.385L21.2978 9.34766C21.6115 9.34766 21.9123 9.22475 22.1341 9.00596C22.3559 8.78716 22.4805 8.49042 22.4805 8.181C22.4805 7.87158 22.3559 7.57483 22.1341 7.35604C21.9123 7.13725 21.6115 7.01433 21.2978 7.01433L2.75476 7.05166C2.72164 7.05166 2.69444 7.068 2.6625 7.07033C2.76741 6.87298 2.90044 6.69147 3.05754 6.53133L7.64539 2.00583C7.75836 1.89821 7.84846 1.76947 7.91045 1.62714C7.97243 1.4848 8.00506 1.33171 8.00643 1.1768C8.00779 1.02189 7.97787 0.868266 7.9184 0.724887C7.85893 0.581508 7.7711 0.451246 7.66005 0.341705C7.549 0.232164 7.41695 0.145533 7.27159 0.0868721C7.12624 0.0282116 6.9705 -0.00130653 6.81345 3.8147e-05C6.65641 0.00138474 6.50121 0.0335693 6.35691 0.0947132C6.21261 0.155857 6.0821 0.244736 5.973 0.356165L1.38514 4.88167C0.498219 5.75679 -2.28882e-05 6.94357 -2.28882e-05 8.181C-2.28882e-05 9.41843 0.498219 10.6052 1.38514 11.4803H1.38041Z" fill="#2F0F5D"/>
</svg>
