<svg width="20" height="20" viewBox="0 0 20 20" fill="none" xmlns="http://www.w3.org/2000/svg">
<path d="M7.64343 0.974445C7.64343 0.97383 7.64268 0.973522 7.64225 0.973957L4.41093 4.2058C4.25913 4.36299 4.17513 4.57353 4.17703 4.79206C4.17893 5.01059 4.26657 5.21963 4.42108 5.37417C4.57559 5.5287 4.7846 5.61635 5.00309 5.61825C5.22159 5.62015 5.43209 5.53614 5.58926 5.38432L8.82176 2.1513C8.91119 2.0636 9.00993 1.98599 9.1162 1.91984C9.1296 1.9115 9.1401 1.92048 9.1401 1.93627L9.16676 15.0084C9.16676 15.2294 9.25456 15.4414 9.41084 15.5977C9.56712 15.754 9.77908 15.8418 10.0001 15.8418C10.2211 15.8418 10.4331 15.754 10.5894 15.5977C10.7456 15.4414 10.8334 15.2294 10.8334 15.0084L10.8068 1.94127C10.8068 1.91226 10.8266 1.89386 10.8518 1.90835C10.9703 1.97667 11.08 2.05937 11.1784 2.15464L14.4109 5.38765C14.4878 5.46726 14.5798 5.53075 14.6814 5.57443C14.7831 5.61811 14.8924 5.64111 15.0031 5.64207C15.1137 5.64303 15.2235 5.62194 15.3259 5.58004C15.4283 5.53813 15.5213 5.47624 15.5996 5.39798C15.6778 5.31973 15.7397 5.22667 15.7816 5.12424C15.8235 5.02181 15.8446 4.91206 15.8436 4.80139C15.8427 4.69072 15.8197 4.58136 15.776 4.47967C15.7323 4.37798 15.6689 4.28602 15.5893 4.20913L12.3568 0.976111C11.7317 0.351108 10.884 1.90735e-06 10.0001 1.90735e-06C9.11677 1.90735e-06 8.26959 0.350666 7.64461 0.974932C7.64417 0.975367 7.64343 0.97506 7.64343 0.974445Z" fill="white"/>
<path d="M18.3333 14.1657V15.8327C18.3333 16.4958 18.0699 17.1318 17.6011 17.6007C17.1323 18.0696 16.4964 18.3331 15.8333 18.3331H4.16667C3.50363 18.3331 2.86774 18.0696 2.3989 17.6007C1.93006 17.1318 1.66667 16.4958 1.66667 15.8327L1.66667 14.1657C1.66667 13.9447 1.57887 13.7327 1.42259 13.5764C1.26631 13.4201 1.05435 13.3323 0.833333 13.3323C0.61232 13.3323 0.400358 13.4201 0.244078 13.5764C0.0877974 13.7327 0 13.9447 0 14.1657L0 15.8327C0.00132321 16.9375 0.440735 17.9967 1.22185 18.778C2.00296 19.5592 3.062 19.9987 4.16667 20H15.8333C16.938 19.9987 17.997 19.5592 18.7782 18.778C19.5593 17.9967 19.9987 16.9375 20 15.8327V14.1657C20 13.9447 19.9122 13.7327 19.7559 13.5764C19.5996 13.4201 19.3877 13.3323 19.1667 13.3323C18.9457 13.3323 18.7337 13.4201 18.5774 13.5764C18.4211 13.7327 18.3333 13.9447 18.3333 14.1657Z" fill="white"/>
</svg>
