<svg width="28" height="28" viewBox="0 0 28 28" fill="none" xmlns="http://www.w3.org/2000/svg">
<path d="M10.7007 1.36188L6.17515 5.8881C5.96264 6.10817 5.84504 6.40292 5.8477 6.70887C5.85036 7.01481 5.97306 7.30748 6.18937 7.52382C6.40567 7.74016 6.69829 7.86288 7.00419 7.86554C7.31008 7.8682 7.60478 7.75059 7.82482 7.53804L12.3503 3.01181C12.4874 2.87733 12.6402 2.75981 12.8053 2.66175C12.8053 2.67926 12.796 2.69326 12.796 2.71076L12.8333 21.0117C12.8333 21.3212 12.9562 21.618 13.175 21.8368C13.3938 22.0556 13.6906 22.1785 14 22.1785C14.3094 22.1785 14.6062 22.0556 14.8249 21.8368C15.0437 21.618 15.1667 21.3212 15.1667 21.0117L15.1293 2.71776C15.1293 2.68509 15.113 2.65825 15.1107 2.62675C15.308 2.73025 15.4895 2.86149 15.6497 3.01648L20.1752 7.5427C20.2828 7.65415 20.4115 7.74304 20.5538 7.80419C20.6962 7.86535 20.8493 7.89754 21.0042 7.89888C21.1591 7.90023 21.3127 7.87071 21.4561 7.81204C21.5995 7.75337 21.7297 7.66672 21.8393 7.55716C21.9488 7.44761 22.0355 7.31733 22.0941 7.17392C22.1528 7.03052 22.1823 6.87687 22.1809 6.72194C22.1796 6.567 22.1474 6.41389 22.0863 6.27153C22.0251 6.12917 21.9362 6.00041 21.8248 5.89277L17.2993 1.36654C16.4242 0.491541 15.2374 -7.62939e-06 14 -7.62939e-06C12.7626 -7.62939e-06 11.5758 0.491541 10.7007 1.36654V1.36188Z" fill="#2F0F5D"/>
<path d="M25.6667 19.832V22.1657C25.6667 23.0941 25.2979 23.9845 24.6415 24.641C23.9852 25.2975 23.0949 25.6663 22.1667 25.6663H5.83333C4.90508 25.6663 4.01484 25.2975 3.35846 24.641C2.70208 23.9845 2.33333 23.0941 2.33333 22.1657V19.832C2.33333 19.5226 2.21042 19.2258 1.99162 19.0069C1.77283 18.7881 1.47609 18.6652 1.16667 18.6652C0.857247 18.6652 0.560501 18.7881 0.341709 19.0069C0.122916 19.2258 0 19.5226 0 19.832L0 22.1657C0.0018525 23.7125 0.617029 25.1954 1.71059 26.2891C2.80415 27.3829 4.28681 27.9981 5.83333 28H22.1667C23.7132 27.9981 25.1959 27.3829 26.2894 26.2891C27.383 25.1954 27.9981 23.7125 28 22.1657V19.832C28 19.5226 27.8771 19.2258 27.6583 19.0069C27.4395 18.7881 27.1428 18.6652 26.8333 18.6652C26.5239 18.6652 26.2272 18.7881 26.0084 19.0069C25.7896 19.2258 25.6667 19.5226 25.6667 19.832Z" fill="#2F0F5D"/>
</svg>
